<?xml version="1.0" standalone="no"?><!DOCTYPE svg PUBLIC "-//W3C//DTD SVG 1.1//EN" "http://www.w3.org/Graphics/SVG/1.1/DTD/svg11.dtd"><svg t="1552466465848" class="icon" style="" viewBox="0 0 1024 1024" version="1.1" xmlns="http://www.w3.org/2000/svg" p-id="16546" xmlns:xlink="http://www.w3.org/1999/xlink" width="200" height="200"><defs><style type="text/css"></style></defs><path d="M575.082 536.958c5.185-7.904 8.945-17.207 11.163-27.652 2.26-10.666 3.411-22.115 3.411-34.029 0-12.517-1.122-24.292-3.329-35.023-2.162-10.492-5.799-19.702-10.81-27.372-4.908-7.502-11.556-13.442-19.765-17.668-8.266-4.242-18.725-6.401-31.097-6.401-12.327 0-22.761 2.311-30.994 6.867-8.272 4.577-15.092 10.764-20.259 18.388-5.236 7.721-9.038 16.898-11.316 27.277-2.317 10.581-3.494 21.876-3.494 33.568 0 13.004 1.091 25.119 3.25 36.012 2.113 10.672 5.694 19.968 10.643 27.62 4.852 7.497 11.435 13.403 19.578 17.561 8.21 4.189 18.763 6.314 31.371 6.314 12.448 0 23.004-2.315 31.361-6.875 8.369-4.569 15.2-10.825 20.3-18.587v0zM879.171 234.333l-733.469-0.485c-65.341-0.045-118.347 52.906-118.391 118.253l-0.14 236.647c-0.045 65.35 52.867 118.368 118.214 118.418l63.76 0.205 23.886 81.719 142.172-80.414 503.65-1.030c65.341 0.045 118.347-52.899 118.391-118.253l0.14-236.647c0.045-65.353-52.891-118.37-118.214-118.414v0zM379.285 584.513c0 1.705-0.454 3.25-1.346 4.595-0.95 1.422-2.431 2.492-4.401 3.182-1.397 0.485-3.143 0.889-5.341 1.223-2.122 0.318-4.699 0.481-7.667 0.481-3.26 0-5.856-0.159-7.951-0.481-2.143-0.336-3.854-0.734-5.244-1.227-1.965-0.685-3.452-1.76-4.393-3.173-0.891-1.341-1.35-2.891-1.35-4.595v-96.611h-95.354v96.611c0 1.705-0.454 3.25-1.35 4.595-0.948 1.422-2.431 2.492-4.401 3.182-1.394 0.485-3.137 0.889-5.338 1.223-2.122 0.318-4.759 0.481-7.845 0.481-2.966 0-5.567-0.161-7.745-0.479-2.268-0.332-4.051-0.734-5.454-1.23-1.974-0.685-3.452-1.76-4.398-3.173-0.891-1.341-1.346-2.891-1.346-4.595v-217.431c0-1.713 0.454-3.26 1.355-4.605 0.933-1.401 2.409-2.47 4.388-3.168 1.422-0.493 3.198-0.891 5.447-1.227 2.174-0.318 4.781-0.481 7.748-0.481 3.085 0 5.727 0.161 7.841 0.481 2.19 0.332 3.936 0.731 5.341 1.227 1.982 0.699 3.459 1.764 4.398 3.168 0.906 1.355 1.355 2.899 1.355 4.605v86.803h95.354v-86.803c0-1.707 0.458-3.26 1.355-4.605 0.933-1.401 2.409-2.47 4.388-3.168 1.406-0.49 3.119-0.889 5.238-1.223 2.095-0.327 4.697-0.485 7.955-0.485 2.966 0 5.551 0.161 7.665 0.481 2.19 0.332 3.936 0.731 5.341 1.227 1.984 0.699 3.459 1.764 4.401 3.168 0.897 1.355 1.35 2.899 1.35 4.605v217.431zM622.647 523.808c-4.453 15.148-11.209 28.252-20.084 38.935-8.933 10.764-20.295 19.134-33.757 24.9-13.383 5.727-29.153 8.629-46.868 8.629-17.461 0-32.829-2.66-45.67-7.904-12.963-5.298-23.841-13.119-32.317-23.246-8.431-10.065-14.784-22.693-18.881-37.519-4.045-14.62-6.095-31.636-6.095-50.575 0-18.145 2.235-34.887 6.638-49.77 4.453-15.036 11.246-28.027 20.193-38.606 8.989-10.627 20.368-18.931 33.822-24.691 13.383-5.73 29.153-8.633 46.868-8.633 17.11 0 32.27 2.629 45.051 7.811 12.899 5.236 23.792 12.987 32.393 23.047 8.551 10.009 14.998 22.516 19.162 37.171 4.109 14.459 6.191 31.217 6.191 49.814-0.003 18.606-2.235 35.639-6.638 50.642v0zM818.483 381.805c-0.304 2.113-0.809 3.812-1.552 5.21-0.853 1.606-1.974 2.844-3.322 3.673-1.373 0.849-2.913 1.277-4.57 1.277h-59.845v192.546c0 1.705-0.454 3.25-1.346 4.595-0.95 1.422-2.431 2.492-4.401 3.182-1.394 0.485-3.143 0.889-5.341 1.223-2.117 0.318-4.759 0.481-7.845 0.481-2.963 0-5.567-0.161-7.741-0.479-2.271-0.332-4.057-0.734-5.459-1.23-1.965-0.685-3.452-1.748-4.393-3.173-0.891-1.341-1.35-2.889-1.35-4.595v-192.546h-59.842c-1.659 0-3.202-0.426-4.577-1.279-1.401-0.855-2.524-2.151-3.315-3.841-0.618-1.307-1.091-2.913-1.441-4.908-0.332-1.841-0.498-4.017-0.498-6.458 0-2.435 0.167-4.626 0.493-6.525 0.348-2.027 0.813-3.673 1.417-5.036 0.782-1.764 1.911-3.111 3.351-3.999 1.377-0.849 2.917-1.279 4.575-1.279h157.561c1.65 0 3.185 0.426 4.556 1.277 1.394 0.855 2.524 2.151 3.375 3.85 0.721 1.437 1.21 3.182 1.507 5.31 0.257 1.868 0.393 4.023 0.393 6.403 0.001 2.384-0.127 4.513-0.386 6.319v0zM818.483 381.805z" fill="#ff9f32" p-id="16547"></path></svg>