<?xml version="1.0" standalone="no"?><!DOCTYPE svg PUBLIC "-//W3C//DTD SVG 1.1//EN" "http://www.w3.org/Graphics/SVG/1.1/DTD/svg11.dtd"><svg t="1552468193294" class="icon" style="" viewBox="0 0 1024 1024" version="1.1" xmlns="http://www.w3.org/2000/svg" p-id="17204" xmlns:xlink="http://www.w3.org/1999/xlink" width="200" height="200"><defs><style type="text/css"></style></defs><path d="M884.4 0 139.6 0C60.5 0 0 60.5 0 139.6l0 744.7C0 963.5 60.5 1024 139.6 1024l744.7 0c79.1 0 139.6-60.5 139.6-139.6L1023.9 139.6C1024 60.5 963.5 0 884.4 0zM186.2 754c0-9.3 0-23.3 0-23.3l121-516.7c0 0 4.7-14 9.3-18.6 9.3-9.3 23.3-9.3 23.3-9.3l218.8 0c0 0 107.1 0 153.6 46.5 46.5 41.9 46.5 97.7 46.5 130.3 0 32.6-18.6 88.4-51.2 121-37.2 37.2-46.5 41.9-88.4 60.5-41.9 18.6-125.7 27.9-125.7 27.9l-93.1 0c0 0-9.3 4.7-18.6 9.3-9.3 4.7-14 14-14 14l-32.6 130.3c0 0 0 14-9.3 23.3-9.3 9.3-18.6 9.3-18.6 9.3l-97.7 0C204.8 763.3 190.8 763.3 186.2 754zM819.2 488.7c-27.9 69.8-69.8 97.7-121 125.7C642.3 642.3 516.7 647 516.7 647l-46.5 0c0 0-9.3 0-18.6 9.3-4.7 4.7-9.3 14-9.3 14l-32.6 135c0 0-4.7 9.3-14 18.6-4.7 14-18.6 14-18.6 14L274.6 837.9c0 0-9.3 0-14-4.7-4.7-9.3 0-18.6 0-18.6l4.7-23.3 65.2 0c0 0 9.3 0 18.6-14 9.3-14 9.3-18.6 9.3-18.6l32.6-135c0 0 4.7-9.3 9.3-14 9.3-4.7 18.6-9.3 18.6-9.3l88.4 0c0 0 79.1-4.7 153.6-41.9 60.5-32.6 88.4-74.5 93.1-88.4 4.7-14 23.3-37.2 23.3-83.8 4.7-46.5-14-93.1-14-93.1s41.9 32.6 55.9 69.8C842.5 428.2 823.9 460.8 819.2 488.7zM409.6 456.1c-4.7-9.3 0-18.6 0-18.6l27.9-121c0 0 4.7-9.3 14-14 9.3-4.7 14-4.7 14-4.7l69.8 0c14 0 46.5 14 55.9 37.2 14 23.3 9.3 69.8-18.6 102.4-27.9 27.9-83.8 37.2-83.8 37.2l-65.2 0C423.6 465.5 409.6 465.5 409.6 456.1z" p-id="17205" fill="#13227a"></path></svg>