<?xml version="1.0" standalone="no"?><!DOCTYPE svg PUBLIC "-//W3C//DTD SVG 1.1//EN" "http://www.w3.org/Graphics/SVG/1.1/DTD/svg11.dtd"><svg t="1562749232271" class="icon" viewBox="0 0 1024 1024" version="1.1" xmlns="http://www.w3.org/2000/svg" p-id="7397" xmlns:xlink="http://www.w3.org/1999/xlink" width="200" height="200"><defs><style type="text/css"></style></defs><path d="M511.99838 511.99838m-511.99838 0a511.99838 511.99838 0 1 0 1023.996759 0 511.99838 511.99838 0 1 0-1023.996759 0Z" fill="#13B3CA" p-id="7398"></path><path d="M874.033171 149.920375c199.947849 199.939207 199.947849 524.14118-0.015124 724.104154-199.947849 199.947849-524.156305 199.947849-724.104154 0L874.033171 149.920375z" fill="#10ABB6" p-id="7399"></path><path d="M991.066434 692.712205L707.637911 409.283682l-51.038654 51.038654-223.838053-223.848856-105.342037 105.342036 95.502479 95.502479-76.303025 76.303026 128.342056 128.342056-101.720803 101.720803 264.656877 264.656877c162.882058-41.196936 294.588232-160.444856 353.169683-315.628552z" fill="#0EA2A4" p-id="7400"></path><path d="M669.251969 654.408367H523.220747c-20.307862 0-37.560578-7.106347-51.740862-21.375218-14.227819-14.286156-21.286632-31.538872-21.286632-51.943962v-51.96773h208.065376c18.756522 0 34.924596-6.74336 48.346496-20.139332 13.419739-13.501844 20.163099-29.646151 20.163099-48.443725 0-18.836465-6.74336-34.965648-20.195509-48.426439-13.469434-13.419739-29.687203-20.154456-48.523668-20.154456H450.191092v-107.355754c0-20.325147-7.235986-37.722626-21.649619-52.209721-14.318566-14.510863-31.627458-21.796543-51.758148-21.796544-20.70542 0-38.288714 7.179809-52.646171 21.375219-14.3661 14.245104-21.537266 31.789506-21.537266 52.704508v296.47015c0 60.981923 21.537266 113.070648 64.693903 156.324514 43.156637 43.3014 95.180543 64.912128 156.009061 64.912128h145.998812c20.260328 0 37.657806-7.277038 52.13842-21.805186 14.480614-14.448204 21.699314-31.86945 21.699314-52.17083 0-20.307862-7.218701-37.698859-21.699314-52.218364-14.482774-14.471971-31.90402-21.779258-52.188115-21.779258z" fill="#FFFFFF" p-id="7401"></path></svg>