<?xml version="1.0" standalone="no"?><!DOCTYPE svg PUBLIC "-//W3C//DTD SVG 1.1//EN" "http://www.w3.org/Graphics/SVG/1.1/DTD/svg11.dtd"><svg t="1563434820155" class="icon" viewBox="0 0 1024 1024" version="1.1" xmlns="http://www.w3.org/2000/svg" p-id="2841" xmlns:xlink="http://www.w3.org/1999/xlink" width="200" height="200"><defs><style type="text/css"></style></defs><path d="M512 512m-512 0a512 512 0 1 0 1024 0 512 512 0 1 0-1024 0Z" fill="#13B3CA" p-id="2842"></path><path d="M873.99022 149.970895c199.925908 199.917267 199.94103 524.069653-0.008642 724.010683-199.925908 199.934549-524.093417 199.934549-724.010683 0.015122L873.99022 149.970895z" fill="#10ABB6" p-id="2843"></path><path d="M1019.279722 580.183711l-138.363548-138.363548-11.406438 11.397796-174.302469-174.293827-9.036577 9.030096-20.920444-20.920444-25.55863 25.55863-20.708734-20.702252-33.311983 33.303342 40.650557 40.644076-156.097535 156.114817-152.129045-152.111762-33.303342 33.294701 43.843496 43.837015-30.85355 30.847069 50.335227 50.335228-22.188546 22.188546 61.320405 61.329046-10.006556 10.015199 56.284722 56.293363-66.114134 66.122775-49.252912-49.244271-47.570031 47.57003-59.023995-59.032636-11.866584 11.875225 347.349797 347.349797c243.609541-16.509091 440.366274-203.341359 472.230849-442.438011z" fill="#0EA2A4" p-id="2844"></path><path d="M800.366848 489.941072c40.918436-3.370084 68.661139-21.978996 79.346033-47.215739-14.767881 9.068982-60.583739 18.954562-85.885292 9.531288a308.965406 308.965406 0 0 0-3.977131-16.675434c-19.278608-70.802007-85.286887-127.821234-154.449218-120.942807a293.53647 293.53647 0 0 1 16.934671-6.247617c7.606452-2.732792 52.275186-10.006557 45.249858-25.77034-5.932212-13.862711-60.503808 10.483985-70.778243 13.668282 13.564588-5.100492 35.995089-13.879993 38.388712-29.464471-20.782184 2.845129-41.177673 12.67454-56.930655 26.967153 5.681616-6.135281 10.000076-13.596992 10.920368-21.631186-55.444361 35.405324-87.825251 106.788454-114.016852 176.039358-20.572634-19.933182-38.807813-35.638637-55.176483-44.353329-45.889309-24.621055-100.759028-50.302823-186.894917-82.273254-2.64422 28.494492 14.089543 66.397134 62.314148 91.592832-10.451581-1.397721-29.535761 1.730408-44.839399 5.383493 6.232495 32.648768 26.545892 59.54247 81.601398 72.556179-25.154652 1.656958-38.153239 7.37962-49.93125 19.714991 11.438843 22.707021 39.397577 49.430058 89.661515 43.940709-55.880744 24.087459-22.77183 68.723788 22.713501 62.063552-77.600503 80.15399-199.949672 74.269305-270.202959 7.234879 183.427619 249.945731 582.171196 147.812745 641.568925-92.934385 44.523993 0.371573 70.696152-15.422455 86.920081-32.834555-25.655844 4.357346-62.830462-0.13826-82.536811-8.349599z" fill="#FFFFFF" p-id="2845"></path></svg>