<?xml version="1.0" standalone="no"?><!DOCTYPE svg PUBLIC "-//W3C//DTD SVG 1.1//EN" "http://www.w3.org/Graphics/SVG/1.1/DTD/svg11.dtd"><svg t="1553484061848" class="icon" style="" viewBox="0 0 1027 1024" version="1.1" xmlns="http://www.w3.org/2000/svg" p-id="2526" xmlns:xlink="http://www.w3.org/1999/xlink" width="200.5859375" height="200"><defs><style type="text/css"></style></defs><path d="M748.8 400c-3.2-6.4-3.2-12.8-6.4-19.2l-6.4-9.6c12.8-16 19.2-38.4 19.2-54.4V208c0-12.8-3.2-28.8-12.8-44.8l-3.2-6.4c3.2-6.4 6.4-16 6.4-22.4 0-86.4-188.8-134.4-368-134.4S6.4 48 6.4 134.4c0 9.6 3.2 16 6.4 22.4l-3.2 9.6c-6.4 12.8-9.6 28.8-9.6 41.6v108.8c0 19.2 6.4 38.4 19.2 54.4l-6.4 9.6c-9.6 16-12.8 28.8-12.8 48v108.8c0 19.2 6.4 38.4 16 54.4l-3.2 6.4c-9.6 16-12.8 28.8-12.8 44.8v108.8c0 96 166.4 176 377.6 176 44.8 0 83.2-9.6 124.8-16-3.2-3.2 3.2 3.2 0 0 57.6 64 131.2 92.8 220.8 92.8 169.6 0 304-137.6 304-304-3.2-153.6-124.8-288-278.4-300.8zM377.6 41.6C579.2 41.6 704 92.8 704 134.4s-124.8 92.8-326.4 92.8S51.2 176 51.2 134.4c-3.2-35.2 121.6-92.8 326.4-92.8zM41.6 230.4c60.8 51.2 201.6 76.8 336 76.8s275.2-25.6 336-76.8V320c0 60.8-137.6 131.2-336 131.2S41.6 380.8 41.6 320V230.4z m0 204.8c60.8 57.6 188.8 92.8 336 92.8 35.2 0 67.2-3.2 102.4-6.4-22.4 35.2-44.8 70.4-54.4 112-3.2 9.6-3.2 22.4-6.4 35.2-12.8 0-25.6 3.2-41.6 3.2-198.4 0-336-70.4-336-131.2v-105.6z m336 451.2c-198.4 0-336-70.4-336-131.2v-102.4c60.8 57.6 188.8 92.8 336 92.8h41.6c3.2 38.4 16 70.4 35.2 105.6 6.4 9.6 9.6 16 16 25.6-35.2 6.4-60.8 9.6-92.8 9.6z m342.4 60.8c-70.4 0-134.4-28.8-179.2-76.8-9.6-9.6-19.2-22.4-25.6-35.2-22.4-38.4-38.4-83.2-38.4-131.2v-3.2c0-16 3.2-28.8 3.2-48 0-6.4 3.2-19.2 9.6-28.8 28.8-86.4 108.8-150.4 198.4-163.2 9.6 0 19.2-3.2 28.8-3.2h9.6c131.2 3.2 236.8 112 236.8 243.2 0 137.6-112 246.4-243.2 246.4z m163.2-304c-3.2-3.2-118.4-121.6-131.2-134.4-9.6-9.6-19.2-9.6-25.6-9.6-16 0-25.6 9.6-25.6 12.8l-134.4 131.2c-12.8 12.8-16 25.6-12.8 41.6 3.2 6.4 9.6 19.2 28.8 19.2h38.4v166.4c0 6.4 0 12.8 6.4 22.4 3.2 6.4 12.8 12.8 28.8 12.8h137.6c12.8 0 19.2-6.4 25.6-9.6 9.6-9.6 9.6-19.2 9.6-22.4v-166.4h28.8c22.4 0 28.8-12.8 35.2-19.2 6.4-19.2 3.2-32-9.6-44.8z m-105.6 9.6v195.2h-112v-198.4h-44.8l99.2-99.2c19.2 19.2 67.2 70.4 99.2 102.4h-41.6z" fill="#d81e06" p-id="2527"></path></svg>