<?xml version="1.0" standalone="no"?><!DOCTYPE svg PUBLIC "-//W3C//DTD SVG 1.1//EN" "http://www.w3.org/Graphics/SVG/1.1/DTD/svg11.dtd"><svg t="1552463832026" class="icon" style="" viewBox="0 0 1170 1024" version="1.1" xmlns="http://www.w3.org/2000/svg" p-id="10778" xmlns:xlink="http://www.w3.org/1999/xlink" width="228.515625" height="200"><defs><style type="text/css"></style></defs><path d="M 1032.01 126.713 A 329.568 329.568 0 0 0 580.138 116.777 a 329.568 329.568 0 0 0 -451.871 9.93497 a 322.717 322.717 0 0 0 0 459.409 l 378.558 375.132 a 102.776 102.776 0 0 0 146.627 0 l 378.558 -374.789 a 322.717 322.717 0 0 0 0 -459.751 Z m -48.9898 411.104 L 604.462 912.947 a 34.2586 34.2586 0 0 1 -48.6473 0 L 176.914 537.815 a 254.885 254.885 0 0 1 0 -362.799 A 260.023 260.023 0 0 1 533.547 169.193 L 580.138 209.275 L 626.387 169.193 a 260.023 260.023 0 0 1 356.633 7.5369 a 254.885 254.885 0 0 1 0 361.086 Z" fill="#d81e06" p-id="10779"></path><path d="M 348.893 203.451 A 145.599 145.599 0 0 0 203.293 349.05 a 17.1293 17.1293 0 0 0 34.2586 0 A 111.34 111.34 0 0 1 348.893 237.71 a 17.1293 17.1293 0 0 0 0 -34.2586 Z" fill="#d81e06" p-id="10780"></path></svg>