<?xml version="1.0" standalone="no"?><!DOCTYPE svg PUBLIC "-//W3C//DTD SVG 1.1//EN" "http://www.w3.org/Graphics/SVG/1.1/DTD/svg11.dtd"><svg t="1552637529882" class="icon" style="" viewBox="0 0 1024 1024" version="1.1" xmlns="http://www.w3.org/2000/svg" p-id="7961" xmlns:xlink="http://www.w3.org/1999/xlink" width="200" height="200"><defs><style type="text/css"></style></defs><path d="M357.325 487.414c0 30.095-24.428 54.425-54.57 54.425-30.095 0-54.532-24.33-54.532-54.425 0-30.09 24.432-54.523 54.533-54.523 30.141-0.005 54.569 24.427 54.569 54.523m0 0z m624.89-30.193c0-227.051-212.054-411.796-472.775-411.796-260.726 0-472.78 184.745-472.78 411.796 0 134.881 75.98 261.217 203.412 338.191v129.813c0 9.247 5.068 17.68 13.163 21.95 3.728 2.083 7.644 3.087 11.868 3.087a24.75 24.75 0 0 0 13.809-4.173l59.889-39.532a18.852 18.852 0 0 0 2.877-2.19l67.738-45.093c33.776 6.36 67.445 9.641 100.121 9.641 260.624-0.097 472.679-184.745 472.679-411.694M277.417 759.265C157.937 691.927 86.671 578.99 86.671 457.124c0-199.445 189.655-361.738 422.769-361.738 233.119 0 422.774 162.293 422.774 361.738 0 199.44-189.712 361.733-422.769 361.733-32.578 0-66.345-3.574-100.316-10.624-6.456-1.49-13.312-0.097-18.97 3.676l-79.262 52.839c-1.09 0.588-2.678 1.986-2.678 1.986l-18.079 11.92v-97.629c-0.005-9.047-4.925-17.295-12.723-21.76m0 0z m295.685-287.15c0 30.096-24.427 54.63-54.625 54.63-30.09 0-54.523-24.534-54.523-54.63 0-30.095 24.433-54.436 54.523-54.436 30.192 0.01 54.625 24.346 54.625 54.436m0 0z m213.258 0c0 30.096-24.437 54.63-54.533 54.63s-54.528-24.534-54.528-54.63c0-30.095 24.433-54.436 54.528-54.436 30.096 0.01 54.533 24.346 54.533 54.436m0 0z" p-id="7962"></path></svg>