<?xml version="1.0" standalone="no"?><!DOCTYPE svg PUBLIC "-//W3C//DTD SVG 1.1//EN" "http://www.w3.org/Graphics/SVG/1.1/DTD/svg11.dtd"><svg t="1553484192160" class="icon" style="" viewBox="0 0 1024 1024" version="1.1" xmlns="http://www.w3.org/2000/svg" p-id="5514" xmlns:xlink="http://www.w3.org/1999/xlink" width="200" height="200"><defs><style type="text/css"></style></defs><path d="M849.57 877.427c13.936-94.035-16.88-180.674-92.45-259.916 111.97 0 203.006 87.304 203.006 194.654v11.64c0 55.94-50.958 51.939-110.557 53.622zM734.43 594.213c-95.232-62.9-37.614-36.594-154.907-73.317 81.963-46.774 110.107-83.562 117.293-218.065 87.154 0 157.986 70.588 157.986 157.34 0 86.752-33.22 134.042-120.373 134.042zM517.106 931.497H348.565c-158.328 0-283.69 0-283.69-80.095v-16.667c0-153.71 127.22-278.713 283.69-278.713h168.543c156.47 0 283.69 125.004 283.69 278.713v16.667c0 80.095-131.397 80.095-283.69 80.095h-0.001z m-92.395-396.772c-123.97 0-224.724-99.077-224.724-220.84 0-121.764 100.754-220.841 224.723-220.841 123.97 0 224.723 99.077 224.723 220.84 0 121.764-100.754 220.84-224.723 220.84z" p-id="5515" fill="#d81e06"></path></svg>