<?xml version="1.0" standalone="no"?><!DOCTYPE svg PUBLIC "-//W3C//DTD SVG 1.1//EN" "http://www.w3.org/Graphics/SVG/1.1/DTD/svg11.dtd"><svg t="1590131829048" class="icon" viewBox="0 0 1024 1024" version="1.1" xmlns="http://www.w3.org/2000/svg" p-id="1344" xmlns:xlink="http://www.w3.org/1999/xlink" width="200" height="200"><defs><style type="text/css"></style></defs><path d="M925.235 331.418c-22.579-53.965-54.886-102.503-96.102-144.077-41.165-41.626-89.14-74.343-142.546-97.178C631.29 66.51 572.564 54.528 511.995 54.528s-119.296 11.98-174.592 35.635c-53.402 22.835-101.376 55.552-142.54 97.178A451.779 451.779 0 0 0 98.76 331.418c-23.394 55.91-35.272 115.25-35.272 176.486S75.366 628.48 98.765 684.39a452.347 452.347 0 0 0 96.102 144.077c41.165 41.63 89.14 74.348 142.541 97.132C392.704 949.253 451.43 961.285 512 961.285s119.296-12.032 174.592-35.686c53.407-22.784 101.381-55.501 142.546-97.132A451.584 451.584 0 0 0 925.24 684.39c23.399-55.91 35.277-115.25 35.277-176.486s-11.883-120.576-35.282-176.486zM512 958.31c-245.709 0-445.594-202.035-445.594-450.406S266.291 57.498 512 57.498s445.594 202.035 445.594 450.406S757.709 958.31 512 958.31z" p-id="1345"></path><path d="M512 78.08c-233.984 0-423.731 190.26-423.731 424.96S278.016 928 512 928s423.68-190.26 423.68-424.96S745.984 78.08 512 78.08z m314.47 308.07l-20.838 13.773-38.195-56.883 20.838-13.824 38.195 56.934z m-81.868 179.405l20.838 13.773-38.195 56.93-20.839-13.82 38.196-56.883z m-39.63-181.145l20.788-13.773 38.246 56.934-20.833 13.773-38.2-56.934z m70.913 201.83l20.787 13.824-38.195 56.878-20.833-13.768 38.24-56.934z m-32.768-324.3l38.195 56.934-20.833 13.824-38.195-56.935 20.833-13.824z m-31.232 20.684l83.353 124.211L774.4 420.66l-83.354-124.211 20.839-13.824z m-31.232 20.736l38.195 56.934-20.838 13.773-38.196-56.934 20.839-13.773z m-311.86 13.005l-83.302 124.16-20.838-13.773 83.353-124.211 20.788 13.824z m-31.231-20.736L254.208 419.84l-20.787-13.773 83.302-124.211 20.839 13.773zM293.53 641.946l-20.839 13.772-38.195-56.883 20.838-13.824 38.196 56.935z m-8.04-380.826l20.839 13.824-83.354 124.211-20.838-13.824L285.49 261.12z m1.075 482.611L203.213 619.52l20.838-13.824 83.354 124.211-20.839 13.824z m31.284-20.736l-38.247-56.934 20.839-13.768 38.195 56.93-20.787 13.772z m31.232-20.685L265.728 578.1l20.838-13.774 83.354 124.16-20.838 13.824z m282.316-109.772c-26.777 35.02-68.915 57.6-116.331 57.6-81.05 0-146.683-65.844-146.683-147.098 0-0.614 0.051-1.178 0.051-1.74 6.042 17.254 16.896 32.665 31.949 42.7 35.482 23.603 83.66 15.718 109.926-18.33 20.992-31.334 63.54-39.833 94.976-18.892 24.832 16.486 35.533 54.937 26.112 85.76z m-18.892-96.717c-37.376-24.832-88.064-14.746-112.743 22.22-21.862 28.268-62.361 34.919-92.16 15.053-26.163-17.408-37.632-55.5-28.365-85.606 2.663-6.502 5.735-12.749 9.268-18.74l9.523-14.386c26.777-35.482 69.222-58.42 116.992-58.42 81.05 0 146.688 65.844 146.688 147.098 0 22.323-5.018 43.52-13.875 62.464-1.024-27.853-13.67-55.245-35.328-69.683z m48.793 193.894l38.195-56.934 20.788 13.824-38.196 56.934-20.787-13.824z m31.181 20.736l38.246-56.934 20.839 13.773-38.247 56.934-20.838-13.773z m52.122 34.509l-20.834-13.824 38.196-56.934 20.833 13.824-38.195 56.934z m45.158-67.277l-20.838-13.824 38.195-56.934 20.838 13.824-38.195 56.934z" fill="#FFFFFF" p-id="1346"></path><path d="M631.398 592.538c-26.777 35.02-68.915 57.6-116.331 57.6-81.05 0-146.683-65.844-146.683-147.098 0-0.614 0.051-1.178 0.051-1.74 6.042 17.254 16.896 32.665 31.949 42.7 35.482 23.603 83.66 15.718 109.926-18.33 20.992-31.334 63.54-39.833 94.976-18.892 24.832 16.486 35.533 54.937 26.112 85.76z" fill="#1200FF" p-id="1347"></path><path d="M661.709 503.04c0 22.323-5.018 43.52-13.875 62.464-1.024-27.853-13.67-55.245-35.328-69.683-37.376-24.832-88.064-14.746-112.743 22.22-21.862 28.268-62.361 34.919-92.16 15.053-26.163-17.408-37.632-55.5-28.365-85.606 2.663-6.502 5.735-12.749 9.268-18.74l9.523-14.386c26.777-35.482 69.222-58.42 116.992-58.42 81.05 0 146.688 65.844 146.688 147.098z" fill="#FF0000" p-id="1348"></path><path d="M826.47 386.15l-20.838 13.773-38.195-56.883 20.838-13.824z m-45.158-67.276l-20.838 13.824-38.196-56.935 20.839-13.824z m13.926 87.961L774.4 420.66l-83.354-124.211 20.839-13.824z m-76.39-46.54l-20.838 13.772-38.196-56.934 20.839-13.773z m45.158 67.276l-20.838 13.773-38.195-56.934 20.787-13.773z m-43.724 219.034l-38.196 56.934-20.787-13.824 38.195-56.934z m31.283 20.685l-38.247 56.934-20.838-13.773 38.246-56.934z m31.232 20.736l-38.195 56.934-20.839-13.824 38.195-56.934z m45.158-67.277l-38.195 56.934-20.838-13.824 38.195-56.934z m-31.283-20.685l-38.195 56.883-20.839-13.773 38.247-56.934z m-31.232-20.736l-38.195 56.934-20.839-13.824 38.196-56.883z m-471.91 62.618l-20.839 13.772-38.195-56.883 20.838-13.824z m45.107 67.276l-20.787 13.773-38.247-56.934 20.839-13.773z m31.283-20.736l-20.838 13.824-83.354-124.21 20.838-13.774z m-62.515 41.421l-20.839 13.824-83.353-124.211 20.838-13.824z m-1.075-454.963l-83.354 124.211-20.838-13.824L285.49 261.12z m31.232 20.685L254.208 419.84l-20.787-13.773 83.302-124.211z m31.232 20.736l-83.303 124.16-20.838-13.773 83.353-124.211z" p-id="1349"></path></svg>